<svg xmlns="http://www.w3.org/2000/svg" width="35" height="35" fill="none"><path fill="url(#a)" d="M32.909 13.205c.358-.696.656-1.64.342-2.603-.364-1.117-1.374-1.864-2.991-2.205L19.97 6.209 9.473.592C9.358.529 8.339 0 7.215 0c-.83 0-1.548.29-2.073.831-.49.513-.787 1.22-.876 2.109-.098-.005-.194-.012-.29-.012-1.59 0-2.405.666-2.809 1.225-.633.865-.708 2.033-.24 3.474L4.79 19.465l.37 10.26c.063 1.777 1.05 3.697 3.06 3.697.38 0 .78-.075 1.195-.216.478.808 1.339 1.794 2.717 1.794.968 0 1.933-.517 2.854-1.549l7.451-8.312 9.889-6.243c.215-.137 2.107-1.384 2.038-3.252-.027-.935-.529-1.75-1.457-2.438l.002-.001Zm-22.125 16.2L7.388 19.003 6.933 6.1l12.14 2.586 9.873 5.28-8.209 9.154-9.953 6.285Zm18.935-18.45c.792.165 1.032.404 1.05.455.027.092-.03.285-.127.502l-2.37-1.264 1.447.307ZM7.218 2.615c.393 0 .889.211 1.025.28l2.536 1.355-3.932-.836c.023-.467.12-.708.176-.765.017-.016.093-.034.195-.034ZM3.413 6.82c-.285-.872-.137-1.13-.132-1.135.03-.034.24-.14.696-.14.12 0 .227.005.318.016l.16 4.449-1.042-3.19ZM7.77 29.628l-.04-1.161.745 2.296a1.25 1.25 0 0 1-.254.045c-.218 0-.428-.73-.451-1.18Zm5.269 2.073c-.604.678-.9.684-.906.684-.084 0-.267-.194-.438-.46l2.655-1.676-1.311 1.452Zm17.9-15.016-2.108 1.333 2.472-2.756c.359.25.455.433.455.478.006.194-.421.684-.82.945Z"/><defs><linearGradient id="a" x1="1" x2="23.5" y1="0" y2="25.5" gradientUnits="userSpaceOnUse"><stop/><stop offset=".4" stop-color="#8478F0"/><stop offset="1" stop-color="#C6E332"/></linearGradient></defs></svg>